#N canvas 990 287 710 523 10;
#X msg 36 17 devices;
#X floatatom 54 124 5 0 0 0 - - -, f 5;
#X obj 35 47 comport 9200;
#X msg 95 19 open 4;
#X obj 240 81 == 235;
#X obj 242 300 tgl 15 0 empty empty empty 17 7 0 10 -262144 -1 -1 234
1;
#X obj 60 213 t a;
#X obj 60 286 print what now?;
#X obj 281 166 spigot 235;
#X obj 363 114 tgl 15 0 empty empty empty 17 7 0 10 -262144 -1 -1 1
1;
#X obj 272 230 bng 15 250 50 0 empty empty empty 17 7 0 10 -262144
-1 -1;
#X connect 0 0 2 0;
#X connect 1 0 6 0;
#X connect 2 0 1 0;
#X connect 2 0 4 0;
#X connect 2 0 8 0;
#X connect 3 0 2 0;
#X connect 6 0 7 0;
#X connect 8 0 10 0;
#X connect 8 0 5 0;
#X connect 9 0 8 1;
