#N canvas 672 108 1140 877 10;
#X msg 36 17 devices;
#X floatatom 54 124 5 0 0 0 - - -, f 5;
#X obj 60 213 t a;
#X obj 60 286 print what now?;
#X msg 97 21 open 0;
#X obj 35 47 comport 9600;
#X floatatom 322 411 5 0 0 0 - - -, f 5;
#X floatatom 435 402 5 0 0 0 - - -, f 5;
#X obj 354 354 moses 101;
#X obj 936 648 mtof;
#X obj 944 732 osc~;
#X obj 948 811 dac~;
#X obj 326 46 route 201 211 221 223 224 226 229 231 233 235 237 239
241;
#X msg 584 254 33;
#X msg 630 255 37;
#X msg 677 254 41;
#X msg 723 253 44;
#X msg 763 252 49;
#X msg 807 252 55;
#X msg 852 252 62, f 6;
#X msg 918 253 65;
#X msg 956 252 73;
#X msg 572 594 0;
#X obj 772 703;
#X connect 0 0 5 0;
#X connect 1 0 2 0;
#X connect 2 0 3 0;
#X connect 4 0 5 0;
#X connect 5 0 1 0;
#X connect 5 0 8 0;
#X connect 5 0 12 0;
#X connect 8 0 6 0;
#X connect 8 1 7 0;
#X connect 9 0 10 0;
#X connect 10 0 11 0;
#X connect 10 0 11 1;
#X connect 12 0 18 0;
#X connect 12 1 21 0;
#X connect 12 2 20 0;
#X connect 12 3 19 0;
#X connect 12 7 22 0;
#X connect 12 8 13 0;
#X connect 12 9 14 0;
#X connect 12 10 15 0;
#X connect 12 11 16 0;
#X connect 12 12 17 0;
#X connect 13 0 9 0;
#X connect 14 0 9 0;
#X connect 15 0 9 0;
#X connect 16 0 9 0;
#X connect 17 0 9 0;
#X connect 18 0 9 0;
#X connect 19 0 9 0;
#X connect 20 0 9 0;
#X connect 21 0 9 0;
#X connect 22 0 9 0;
